<?xml version="1.0" encoding="UTF-8" standalone="no"?>
<!-- Created with Inkscape (http://www.inkscape.org/) -->

<svg
   width="80"
   height="80"
   viewBox="0 0 21.166666 21.166667"
   version="1.1"
   id="svg1"
   inkscape:version="1.3.2 (091e20e, 2023-11-25)"
   sodipodi:docname="vision2d_blue.svg"
   xmlns:inkscape="http://www.inkscape.org/namespaces/inkscape"
   xmlns:sodipodi="http://sodipodi.sourceforge.net/DTD/sodipodi-0.dtd"
   xmlns="http://www.w3.org/2000/svg"
   xmlns:svg="http://www.w3.org/2000/svg">
  <sodipodi:namedview
     id="namedview1"
     pagecolor="#505050"
     bordercolor="#eeeeee"
     borderopacity="1"
     inkscape:showpageshadow="0"
     inkscape:pageopacity="0"
     inkscape:pagecheckerboard="0"
     inkscape:deskcolor="#505050"
     inkscape:document-units="px"
     showgrid="true"
     inkscape:zoom="5.8658912"
     inkscape:cx="58.047446"
     inkscape:cy="46.71072"
     inkscape:window-width="2560"
     inkscape:window-height="1368"
     inkscape:window-x="0"
     inkscape:window-y="0"
     inkscape:window-maximized="1"
     inkscape:current-layer="layer1">
    <inkscape:grid
       id="grid1"
       units="px"
       originx="0"
       originy="0"
       spacingx="2.6458333"
       spacingy="2.6458333"
       empcolor="#0099e5"
       empopacity="0.30196078"
       color="#0099e5"
       opacity="0.14901961"
       empspacing="4"
       dotted="false"
       gridanglex="30"
       gridanglez="30"
       visible="true"
       enabled="true" />
  </sodipodi:namedview>
  <defs
     id="defs1" />
  <g
     inkscape:label="Layer 1"
     inkscape:groupmode="layer"
     id="layer1">
    <path
       id="path9"
       style="fill:#8da5f3;stroke:none;stroke-width:0.264583;stroke-linecap:round;stroke-linejoin:round;stroke-dasharray:none;fill-opacity:1"
       d="M 10.583331,5.2916655 A 10.583333,10.583332 0 0 0 1.4453876,10.583332 10.583333,10.583332 0 0 0 10.583331,15.874999 10.583333,10.583332 0 0 0 19.73316,10.561628 10.583333,10.583332 0 0 0 10.583331,5.2916655 Z m 0,2.645833 a 7.9375,7.9374995 0 0 1 5.910234,2.6406665 7.9375,7.9374995 0 0 1 -5.910234,2.651001 7.9375,7.9374995 0 0 1 -5.9050664,-2.645834 7.9375,7.9374995 0 0 1 5.9050664,-2.6458335 z" />
    <path
       id="path11"
       style="fill:#8da5f3;stroke:none;stroke-width:0.264583;stroke-linecap:round;stroke-linejoin:round;stroke-dasharray:none;fill-opacity:1"
       d="M 10.583331,7.9374985 A 2.6458333,2.645833 0 0 0 9.9616636,8.0175975 1.326255,1.3890631 0 0 1 10.583331,9.1942695 1.326255,1.3890631 0 0 1 9.2573136,10.583332 1.326255,1.3890631 0 0 1 8.0615206,9.7921655 2.6458333,2.645833 0 0 0 7.9374976,10.583332 2.6458333,2.645833 0 0 0 10.583331,13.229166 2.6458333,2.645833 0 0 0 13.229164,10.583332 2.6458333,2.645833 0 0 0 10.583331,7.9374985 Z" />
  </g>
</svg>
